<?xml version="1.0" encoding="UTF-8" standalone="no"?>
<!-- Created with Inkscape (http://www.inkscape.org/) -->

<svg
   xmlns:dc="http://purl.org/dc/elements/1.1/"
   xmlns:cc="http://creativecommons.org/ns#"
   xmlns:rdf="http://www.w3.org/1999/02/22-rdf-syntax-ns#"
   xmlns:svg="http://www.w3.org/2000/svg"
   xmlns="http://www.w3.org/2000/svg"
   xmlns:sodipodi="http://sodipodi.sourceforge.net/DTD/sodipodi-0.dtd"
   xmlns:inkscape="http://www.inkscape.org/namespaces/inkscape"
   width="74mm"
   height="79mm"
   viewBox="0 0 262.20463 279.92111"
   id="svg2"
   version="1.1"
   inkscape:version="0.91 r13725"
   sodipodi:docname="5.svg"
   inkscape:export-filename="C:\Users\Kristinn\Documents\Inkscape\Kalendara Tøl\17.svg"
   inkscape:export-xdpi="90"
   inkscape:export-ydpi="90">
  <defs
     id="defs4" />
  <sodipodi:namedview
     id="base"
     pagecolor="#ffffff"
     bordercolor="#666666"
     borderopacity="1.0"
     inkscape:pageopacity="0.0"
     inkscape:pageshadow="2"
     inkscape:zoom="2"
     inkscape:cx="109.32628"
     inkscape:cy="125.29802"
     inkscape:document-units="px"
     inkscape:current-layer="layer1"
     showgrid="false"
     inkscape:window-width="1920"
     inkscape:window-height="1027"
     inkscape:window-x="-8"
     inkscape:window-y="-8"
     inkscape:window-maximized="1"
     width="104mm" />
  <metadata
     id="metadata7">
    <rdf:RDF>
      <cc:Work
         rdf:about="">
        <dc:format>image/svg+xml</dc:format>
        <dc:type
           rdf:resource="http://purl.org/dc/dcmitype/StillImage" />
        <dc:title></dc:title>
      </cc:Work>
    </rdf:RDF>
  </metadata>
  <g
     inkscape:label="Layer 1"
     inkscape:groupmode="layer"
     id="layer1"
     transform="translate(0,-772.44115)">
    <g
       id="g4187"
       transform="translate(-7.94411,774.29472)">
      <g
         id="g4137">
        <g
           id="g4139">
          <path
             id="path4141"
             d="m 267.207,99.838 0,-37.64 0,-4.123 c 0,-21.569 -19.036,-39.141 -42.689,-39.748 l 0,0.005 0,9.549 0,0.009 0,9.6 0,0.019 0,5.454 c 0,13.999 -11.388,25.387 -25.384,25.387 -13.997,0 -25.385,-11.388 -25.385,-25.387 l 0,-5.582 0,-9.558 0,-9.558 -71.98,0 0,9.558 0,9.558 0,5.582 c 0,13.999 -11.388,25.387 -25.386,25.387 -13.997,0 -25.384,-11.388 -25.384,-25.387 l 0,-5.372 0,-0.033 0,-9.631 0,-0.009 0,-9.548 0,-0.01 C 27.737,19.345 9.131,36.756 9.131,58.07 l 0,4.123 0,37.64 0,132.573 c 0,24.218 19.709,43.932 43.929,43.932 l 170.216,0 c 24.217,0 43.927,-19.714 43.927,-43.932 l 0,-132.568 0.004,0 z M 248.09,232.411 c 0,13.684 -11.131,24.811 -24.814,24.811 l -170.211,0 c -13.682,0 -24.812,-11.127 -24.812,-24.811 l 0,-132.573 219.837,0 0,132.573 z"
             inkscape:connector-curvature="0" />
          <path
             id="path4143"
             d="m 65.339,11.049 0,7.215 0,9.558 0,9.558 0,5.582 c 0,6.104 4.945,11.049 11.049,11.049 6.102,0 11.049,-4.945 11.049,-11.049 l 0,-5.582 0,-9.558 0,-9.558 0,-7.215 C 87.438,4.945 82.491,0 76.389,0 70.284,0.005 65.339,4.95 65.339,11.049 Z"
             inkscape:connector-curvature="0" />
          <path
             id="path4145"
             d="m 199.137,0.005 c -6.104,0 -11.051,4.945 -11.051,11.049 l 0,7.215 0,9.558 0,9.558 0,5.582 c 0,6.104 4.946,11.049 11.051,11.049 6.105,0 11.052,-4.945 11.052,-11.049 l 0,-5.587 0,-9.558 0,-9.558 0,-7.215 C 210.18,4.95 205.238,0.005 199.137,0.005 Z"
             inkscape:connector-curvature="0" />
        </g>
      </g>
      <g
         id="g4151" />
      <g
         id="g4153" />
      <g
         id="g4155" />
      <g
         id="g4157" />
      <g
         id="g4159" />
      <g
         id="g4161" />
      <g
         id="g4163" />
      <g
         id="g4165" />
      <g
         id="g4167" />
      <g
         id="g4169" />
      <g
         id="g4171" />
      <g
         id="g4173" />
      <g
         id="g4175" />
      <g
         id="g4177" />
      <g
         id="g4179" />
    </g>
    <flowRoot
       xml:space="preserve"
       id="flowRoot4211"
       style="font-style:normal;font-weight:normal;font-size:40px;line-height:125%;font-family:sans-serif;letter-spacing:0px;word-spacing:0px;fill:#000000;fill-opacity:1;stroke:none;stroke-width:1px;stroke-linecap:butt;stroke-linejoin:miter;stroke-opacity:1"
       transform="matrix(3.0958128,0,0,3.0958128,-635.75799,-172.02792)"
       inkscape:export-filename="C:\Users\Kristinn\Kalendaratal31.svg"
       inkscape:export-xdpi="90"
       inkscape:export-ydpi="90"><flowRegion
         id="flowRegion4213"><rect
           id="rect4215"
           width="97.479721"
           height="51.517776"
           x="199.00005"
           y="337.17419" /></flowRegion><flowPara
         id="flowPara4217"
         style="font-style:normal;font-variant:normal;font-weight:normal;font-stretch:normal;font-size:39.99999619px;line-height:125%;font-family:'Arial Rounded MT Bold';-inkscape-font-specification:'Arial Rounded MT Bold, Normal';text-align:center;writing-mode:lr-tb;text-anchor:middle">31</flowPara></flowRoot>    <flowRoot
       xml:space="preserve"
       id="flowRoot4219"
       style="fill:black;stroke:none;stroke-opacity:1;stroke-width:1px;stroke-linejoin:miter;stroke-linecap:butt;fill-opacity:1;font-family:sans-serif;font-style:normal;font-weight:normal;font-size:40px;line-height:125%;letter-spacing:0px;word-spacing:0px"><flowRegion
         id="flowRegion4221"><rect
           id="rect4223"
           width="181.5"
           height="136.5"
           x="138"
           y="185.92126" /></flowRegion><flowPara
         id="flowPara4225"></flowPara></flowRoot>  </g>
</svg>
